PathFileType	4	(X/Y/Z)	Patient4_TMGait_0pt5_01_right_02.trc.trc
DataRate	CameraRate	NumFrames	NumMarkers	Units	OrigDataRate	OrigDataStartFrame	OrigNumFrames
76.086956521739	76.086956521739	4	33	mm	76.086956521739	1	       141
Frame#	Time	L.ASIS			Sacral			L.Shoulder			Chest			R.Shoulder			Neck			R.ASIS			R.Thigh.Superior			R.Thigh.Lateral			R.Thigh.Inferior			R.Patella			L.Thigh.Superior			L.Thigh.Lateral			L.Thigh.Inferior			L.Patella			L.Shank.Superior			L.Shank.Lateral			L.Shank.Inferior			R.Shank.Superior			R.Shank.Lateral			R.Shank.Inferior			R.Heel			R.Midfoot.Superior			R.Midfoot.Lateral			R.Toe			L.Heel			L.Midfoot.Lateral			L.Midfoot.Superior			L.Toe			L.Elbow			L.Wrist			R.Elbow			R.Wrist			
		X1	Y1	Z1	X2	Y2	Z2	X3	Y3	Z3	X4	Y4	Z4	X5	Y5	Z5	X6	Y6	Z6	X7	Y7	Z7	X8	Y8	Z8	X9	Y9	Z9	X10	Y10	Z10	X11	Y11	Z11	X12	Y12	Z12	X13	Y13	Z13	X14	Y14	Z14	X15	Y15	Z15	X16	Y16	Z16	X17	Y17	Z17	X18	Y18	Z18	X19	Y19	Z19	X20	Y20	Z20	X21	Y21	Z21	X22	Y22	Z22	X23	Y23	Z23	X24	Y24	Z24	X25	Y25	Z25	X26	Y26	Z26	X27	Y27	Z27	X28	Y28	Z28	X29	Y29	Z29	X30	Y30	Z30	X31	Y31	Z31	X32	Y32	Z32	X33	Y33	Z33	

1	1.910000000000	762.801912519889	966.991965239582	289.873270243970	538.027358009258	1002.816088953215	437.119710094345	706.593317690826	1437.669111011965	259.381422874871	801.178996316716	1373.513531302233	427.893351051891	702.629626544718	1445.067971864492	596.135817188250	693.548553619098	1499.710879181748	409.647272965872	763.556620151055	950.797680102095	564.544791598929	852.411014231984	780.152193706559	534.334861476466	813.302499939950	658.241733547789	604.592989335109	902.771673970452	620.158060299981	525.127858649110	925.714620583161	509.955995950230	548.642142594791	807.422463164807	751.866587151979	323.697437374757	717.722408491327	636.748208650105	266.631919202086	797.060993983718	559.236198942834	334.450869838405	794.369371348436	490.133016635358	346.929251320093	771.279172649958	418.299099696885	340.023821009047	685.569985262853	299.415869075272	294.427801058763	739.278702948680	193.769809769972	371.072551167901	859.633658514862	429.002680269814	555.479617631523	746.035287785913	370.567200031850	614.951551748155	748.181828076666	260.648887499387	566.548149005799	558.148606268593	169.816940893411	535.096012818551	733.543999112711	140.112247787400	585.133232665854	623.256723016164	126.639880610539	614.843317540305	811.154999569166	39.658020438408	623.277805256794	614.657965808681	36.706656211300	421.282679213455	686.097846723298	34.458412110831	337.240256527701	769.124147429282	96.502919885923	360.672460837127	896.712179009655	48.296444081734	328.704926002698	742.889385008487	1092.269510711980	120.562806551648	910.147831009097	889.602112298345	135.187161355456	648.839526665014	1099.106358223941	705.957226493298	738.360658278414	852.997055890033	710.199375454446	
2	1.923142857143	762.937368213106	966.744962858861	289.670072336969	537.341109714178	1002.887911128473	435.340165698440	708.163656423319	1437.865044326926	259.146314931530	801.088627730075	1373.156592693572	428.340296861694	701.401809281046	1444.667046066383	596.019648948877	693.932847103613	1499.762609643432	409.421918469079	761.873282212321	950.795521373978	564.290837108317	850.830409608150	780.496084754232	534.326867173245	812.055185682719	658.796766409261	605.041184300943	900.955043393780	620.564322876360	525.249761869732	925.437711744711	512.617538025439	549.119507580125	805.793284010364	751.080504355013	323.586645868999	715.254492721960	636.525697387507	266.108273303272	793.592656051543	558.423942917161	334.141663176775	790.208322466909	489.341302402111	346.665608853257	766.721286746978	417.724469083255	339.805936289333	680.417776910778	299.341540275056	294.071378543774	733.173082898757	193.403866175324	370.911392171251	863.554227726147	429.969470291640	556.325913783630	754.084061134887	365.588550737315	616.031836477214	762.752839758909	256.323649592668	567.800005961669	579.460782912617	154.636649516498	536.469512670979	755.326410293897	135.675476919824	586.557722666651	646.692425253986	115.807505156295	616.460701508263	838.396333518704	40.735895501114	624.863504867539	607.761295990755	36.787061237019	421.221055720868	679.160321246136	34.448073998167	337.250292137371	762.310917805679	96.345797118364	360.697228437058	889.872378138356	47.864139387870	328.723535788386	748.212702936112	1094.459388608208	117.636811540471	923.248760665997	899.581791941718	134.077143908739	641.601312106351	1099.593039102846	704.395703892143	717.513113827255	850.572018669022	713.280070594824	
3	1.936285714286	763.062435226893	966.484169604180	289.485384368443	536.703321195554	1002.956517260409	433.602264062048	709.711781215783	1438.043614807041	258.922209064962	801.010058097115	1372.798473626143	428.788298441617	700.192347866024	1444.266074646710	595.882180200028	694.322860059809	1499.796776653529	409.205367354053	760.212075545300	950.756576034467	564.067661534259	849.152414409446	780.705381239439	534.412575282609	810.558643284564	659.230383682270	605.539364568678	898.965562836456	620.827133470801	525.504482699106	924.920659719111	515.156221991705	549.677104644711	804.178216970704	750.296409667074	323.487470160903	712.777818614306	636.314699023974	265.597872542659	790.113384659102	557.619358799963	333.830733297316	786.037517985506	488.562879989873	346.402523195040	762.160223043335	417.162135162954	339.585373647044	675.266053652586	299.274182081187	293.714439572537	727.091892542536	193.047088983851	370.743078550989	867.294321974960	430.905763737517	557.212591830685	762.057315995733	360.601416152144	617.110270646385	777.294463420702	252.118436774096	569.048436283891	600.995691409665	139.641490290447	537.763895475009	777.127683084208	131.473561556508	587.966640525764	670.260894630508	105.184938079181	618.007815424930	865.570492879072	42.161789666608	626.436571254048	600.910110577696	36.868783225990	421.154760838305	672.268324363384	34.438521611265	337.256862503794	755.541281190538	96.191449922853	360.716139445273	883.077963231307	47.433293984831	328.738395443839	753.476050922213	1096.626479562332	114.779443856548	936.136750829543	909.526035681834	133.042167046888	634.386806871955	1100.165101794688	702.933631186943	697.046134377438	848.416791296489	716.261285555067	
4	1.949428571429	763.178732960767	966.198777047920	289.349326737904	536.154671419530	1003.016612173002	431.952832745920	711.215819131589	1438.181030039990	258.726999571789	800.954050872313	1372.436707159081	429.244714766914	699.021982613175	1443.868682846631	595.714555122232	694.721404857772	1499.796012255911	409.009508732932	758.603494739919	950.649636142944	563.914399518001	847.306582150463	780.663829905446	534.676690535817	808.623649489657	659.435618872165	606.126411381610	896.672951681112	620.824708323987	525.989845028849	923.971398906207	517.459079862631	550.355779387937	802.587447105239	749.512914107772	323.416092205176	710.282119014589	636.126765449986	265.119525120263	786.609445836594	556.830322390108	333.524369374570	781.846521453004	487.810652482902	346.142806172035	757.588688376524	416.624213500684	339.364165106088	670.109873449057	299.222489293845	293.360152354725	721.054959964539	192.709661705055	370.562404728436	870.684482160700	431.790796768185	558.157122910983	769.861248093722	355.654874189344	618.182503035621	791.701550120968	248.191865437577	570.283330056141	622.820479377773	125.132639386278	538.925720923752	798.848668801130	127.758545281331	589.335164619404	693.949430171591	95.058010809346	619.425470148950	892.468843417547	44.235408300348	627.954046760807	594.142191912085	36.953727556397	421.080414907801	665.460056310022	34.430696659078	337.257340240190	748.851471583407	96.043253648239	360.723936742598	876.366123526735	47.008054260884	328.746507043380	758.603654034826	1098.724308188069	112.080783055500	948.571589922449	919.362134251315	132.161426276667	627.239817392910	1100.899890096294	701.658510035396	677.375555926522	846.764680629363	719.041306632433	
